<svg width="391" height="490" viewBox="0 0 391 490" fill="none" xmlns="http://www.w3.org/2000/svg">
<path d="M214.474 194.798C214.284 194.977 213.863 195.176 213.231 195.394C211.525 195.991 208.26 196.767 203.794 197.642C185.994 201.162 149.152 206.372 115.237 209.753C109.718 210.309 104.304 210.807 99.0381 211.244C93.8981 211.681 88.9058 212.039 84.1873 212.338C85.7461 209.017 87.1996 205.974 88.4844 203.329C80.4799 205.417 71.4218 207.525 64.281 208.44C57.456 209.315 51.4735 210.051 46.8182 211.88C45.5122 211.562 44.5222 211.164 43.8901 210.687C31.4828 201.221 32.6834 186.107 32.6834 186.107C32.6834 186.107 30.1767 185.888 27.67 184.476C25.4582 183.263 23.2254 181.136 22.6778 177.417C21.4771 169.482 31.3565 139.056 62.701 140.746C67.5037 141.005 74.0551 141.203 81.7439 141.342C86.968 141.442 92.7398 141.521 98.8273 141.581C129.329 141.879 168.236 141.661 191.618 141.422C196.295 141.382 200.339 141.322 203.562 141.283C207.291 141.223 209.966 141.164 211.251 141.124C222.078 140.746 219.677 190.263 214.474 194.797V194.798Z" fill="#D86545"/>
<path d="M115.237 209.753C109.718 210.309 104.305 210.807 99.0385 211.244C109.044 172.843 91.6658 150.491 81.7443 141.343C86.9684 141.443 92.7402 141.522 98.8278 141.582C115.406 158.326 116.206 191.636 115.237 209.753Z" fill="#FFC648"/>
<path d="M213.231 195.394C211.525 195.991 208.26 196.767 203.794 197.642C206.89 167.971 198.064 150.173 191.618 141.423C196.295 141.383 200.339 141.323 203.562 141.284C213.989 159.619 214.242 182.23 213.231 195.394Z" fill="#FFC648"/>
<path d="M54.0652 115.053C53.4964 114.895 53.286 114.596 53.391 114.178C54.4655 109.246 96.6582 87.3517 97.9433 75.539C99.3335 62.7123 112.225 -0.108785 170.428 10.0731C202.404 15.1441 205.964 16.3374 205.964 16.3374C205.964 16.3374 238.678 -2.8731 255.15 0.368514C257.467 0.80608 259.469 1.72067 261.006 3.17256C273.519 15.0049 123.895 131.659 54.065 115.053H54.0652Z" fill="#FFF0D2"/>
<path d="M227.071 42.2094C193.43 69.0163 141.232 101.371 97.564 112.588C81.4496 116.744 66.4934 118.017 54.0652 115.053C53.4964 114.895 53.286 114.596 53.391 114.178C63.0177 109.843 81.6812 101.312 102.788 90.8914C138.535 73.2523 181.276 50.2434 199.139 33.1411C202.046 30.377 204.932 27.8116 207.775 25.4649C227.029 9.61548 244.871 3.03308 255.15 0.368225C257.467 0.805791 259.469 1.72038 261.006 3.17227C265.261 7.18928 250.79 23.3171 227.071 42.2091V42.2094Z" fill="#E0D0B3"/>
<path d="M97.5123 67.7936C97.5123 67.7936 172.378 36.9067 193.348 11.669C195.297 8.90875 205.964 16.3374 205.964 16.3374C205.964 16.3374 160.521 47.8735 143.953 56.4607C127.385 65.048 107.145 74.0836 97.9431 75.539C95.118 75.9104 94.5884 68.4072 97.5123 67.7936Z" fill="#FF9C4A"/>
<path d="M151.427 155.761C151.237 156.397 150.963 156.974 150.605 157.491V157.511C149.278 159.499 146.835 160.712 143.759 161.389C142.685 161.627 141.569 161.806 140.368 161.925C138.367 162.144 136.218 162.224 133.985 162.164C133.5 162.184 133.016 162.164 132.532 162.144C130.678 162.085 128.824 161.965 126.991 161.846C121.051 161.389 115.532 160.653 112.436 160.692C109.592 160.692 107.169 160.454 105.126 160.036C90.4649 157.133 94.5937 145.062 94.0672 142.437C81.976 141.522 81.6811 128.337 92.6138 118.692C94.6361 116.903 96.2579 114.815 97.5639 112.587C102.599 103.957 102.809 93.2973 102.788 90.8911C113.152 85.7803 124.106 80.2122 134.849 74.4849C133.732 78.9195 128.129 102.207 131.289 106.701C134.807 111.673 141.611 115.849 133.501 124.32C133.501 124.32 127.792 127.84 135.46 131.997C141.863 135.437 135.334 136.73 134.238 140.17C134.006 140.866 134.006 141.661 134.364 142.556C134.638 143.253 135.249 144.088 136.133 145.042C138.893 148.045 144.454 152.141 151.426 155.761H151.427Z" fill="#21935F"/>
<path d="M226.06 162.98C224.122 172.565 200.424 170.735 200.424 170.735C200.424 170.735 203.12 165.545 210.577 162.98C211.504 162.661 212.136 162.383 212.536 162.145C215.232 160.514 206.006 160.395 198.001 155.503C208.66 148.562 219.761 138.38 219.761 129.292C219.761 128.278 219.782 127.204 219.846 126.091C220.541 109.724 225.87 83.7725 220.857 78.5223C215.738 73.1728 165.519 72.1785 152.986 64.5023C172.324 53.5053 189.407 42.4483 199.139 33.1414C202.046 30.3773 204.932 27.8119 207.776 25.4652C213.253 28.9057 222.437 35.3089 227.071 42.2094C228.756 44.7151 229.852 47.2805 229.936 49.7862C230.421 62.5531 234.191 63.7264 241.522 70.3088C248.873 76.9112 238.151 87.6698 237.183 92.6809C240.574 99.9792 241.438 106.164 234.76 112.309C228.104 118.453 245.398 118.235 249.758 137.863C254.097 157.491 227.998 153.394 226.06 162.98L226.06 162.98Z" fill="#21935F"/>
<path d="M151.427 155.761C151.237 156.397 150.963 156.974 150.605 157.491V157.511C149.278 159.499 146.835 160.712 143.759 161.389C124.843 153.374 129.225 145.121 134.238 140.17C134.007 140.866 134.007 141.661 134.364 142.556C134.638 143.253 135.249 144.088 136.134 145.042C138.893 148.045 144.454 152.141 151.427 155.761V155.761Z" fill="#127043"/>
<path d="M104.663 341.361L104.052 370.574C103.715 370.693 103.357 370.832 103.02 370.972C102.957 372.881 102.851 374.79 102.704 376.679C102.198 383.201 101.166 385.807 100.345 387.855C99.2914 390.46 98.5542 392.13 99.6286 399.866C99.6707 400.105 99.6919 400.344 99.7128 400.622C100.661 411.003 94.6361 442.88 90.7813 461.793C83.7667 463.701 74.8564 465.273 68.0313 463.662C63.6921 462.648 56.888 461.176 49.347 458.849C33.759 454.037 15.0322 445.565 8.33375 429.755C-1.60894 406.269 -2.34613 412.335 4.47891 391.156C11.283 369.957 17.7288 353.053 18.8453 309.761C19.8985 267.8 28.7668 259.567 29.3144 259.09C28.8298 259.19 21.9629 260.78 22.6789 256.525C23.4373 252.11 36.7083 247.238 36.4764 229.579C36.2236 211.919 47.7881 210.527 64.2822 208.439C71.4233 207.524 80.481 205.416 88.4856 203.328C85.347 209.772 81.2815 218.542 76.9632 227.987C64.7033 254.834 50.5058 287.169 50.5058 287.169C50.5058 287.169 50.2319 287.09 49.7895 287.01C48.0833 286.732 43.7862 286.593 43.2173 291.882C42.4801 298.524 40.9001 304.928 36.3081 311.45C31.6949 317.973 45.1343 318.331 45.1343 318.331C45.1343 318.331 68.4951 324.397 85.7473 332.451C87.2428 333.147 88.6754 333.862 90.0447 334.578C94.0681 336.706 97.5648 338.914 100.008 341.161C100.177 341.459 100.324 341.817 100.472 342.235C100.788 342.175 101.083 342.116 101.399 342.036C102.452 341.817 103.547 341.579 104.664 341.36L104.663 341.361Z" fill="#127043"/>
<path d="M101.398 342.037C101.082 342.117 100.787 342.176 100.471 342.236C100.323 341.818 100.176 341.46 100.007 341.162C97.5634 338.915 94.0668 336.707 90.0436 334.58C88.6743 333.864 87.242 333.148 85.7462 332.452C83.3239 343.091 78.879 363.375 78.563 369.341C78.1207 377.554 63.4174 395.412 63.4174 395.412C71.9487 393.702 77.8467 394.239 81.8281 396.168C81.9483 395.775 82.0445 395.479 82.1103 395.28C89.8232 401.193 95.6153 401.85 99.712 400.623C99.6908 400.344 99.6699 400.106 99.6279 399.867C99.2938 397.461 99.1351 395.643 99.1065 394.2C99.1065 394.187 99.1059 394.174 99.1057 394.162C99.0913 393.378 99.1177 392.711 99.1735 392.116C99.1827 392.019 99.1916 391.921 99.2024 391.829C99.2202 391.675 99.2391 391.526 99.2608 391.382C99.2834 391.235 99.3089 391.094 99.3358 390.956C99.3665 390.796 99.3994 390.641 99.4352 390.491C99.467 390.358 99.4993 390.227 99.5345 390.1C99.5594 390.01 99.5849 389.92 99.6115 389.832C99.6671 389.65 99.7243 389.471 99.7862 389.295C99.8062 389.238 99.8274 389.182 99.848 389.125C99.9076 388.962 99.9691 388.798 100.033 388.635C100.061 388.564 100.088 388.494 100.116 388.423C100.191 388.237 100.266 388.05 100.344 387.856C101.166 385.807 102.198 383.202 102.704 376.679C102.851 374.79 102.956 372.881 103.02 370.972C103.357 370.833 103.715 370.694 104.052 370.575L104.663 341.361C103.546 341.58 102.451 341.819 101.398 342.037V342.037Z" fill="#0B5631"/>
<path d="M229.599 144.664C219.192 144.923 217.507 153.693 216.096 159.002C215.506 161.21 214.053 161.985 212.536 162.144C215.232 160.514 206.006 160.394 198.001 155.502C208.66 148.562 219.761 138.38 219.761 129.292C219.761 128.278 219.782 127.204 219.846 126.091C226.165 133.25 233.833 145.162 229.599 144.664H229.599Z" fill="#127043"/>
<path d="M133.985 162.164C133.5 162.184 133.016 162.164 132.532 162.145C130.678 162.085 128.824 161.966 126.991 161.846C96.9951 146.673 113.363 123.227 113.363 123.227C113.363 123.227 123.411 133.11 125.559 135.338C118.713 139.176 120.525 145.778 121.915 152.301C122.673 155.9 128.719 159.599 133.985 162.164V162.164Z" fill="#127043"/>
<path d="M127.055 116.938C127.055 116.938 122.656 103.975 116.257 109.639C109.858 115.302 111.369 134.199 123.322 136.192C126.226 136.236 128.654 134.179 125.189 129.397C121.723 124.615 127.055 116.938 127.055 116.938Z" fill="#FFE1CC"/>
<path d="M231.852 296.994C231.642 297.073 231.431 297.113 231.221 297.133C231.852 295.483 232.4 293.454 232.737 290.929C232.822 290.233 232.927 289.517 233.053 288.801C233.285 287.329 233.538 285.798 233.769 284.207C233.875 283.392 234.001 282.576 234.128 281.741C234.38 280.071 234.57 278.301 234.717 276.451C234.907 274.025 235.012 271.46 234.928 268.735C234.907 267.443 234.823 266.11 234.696 264.758C234.675 264.738 234.675 264.718 234.696 264.679C234.633 264.022 234.57 263.366 234.465 262.69C234.254 260.801 233.917 258.832 233.475 256.804C233.369 256.346 233.264 255.889 233.159 255.411C232.864 254.139 232.506 252.826 232.105 251.474C231.874 250.678 231.621 249.863 231.326 249.048C231.073 248.232 230.779 247.417 230.463 246.582C230.463 246.582 230.463 246.562 230.441 246.542C230.189 245.846 229.915 245.15 229.62 244.434C229.493 244.096 229.367 243.778 229.219 243.44C228.588 241.889 227.85 240.278 227.071 238.647C226.629 237.732 226.165 236.818 225.68 235.883C225.259 235.067 224.817 234.252 224.353 233.417C224.29 233.298 224.206 233.158 224.142 233.039C222.247 229.658 220.035 226.119 217.486 222.42C207.143 205.596 201.961 198.496 199.37 195.573C198.507 194.062 197.474 192.531 196.274 191.039L187.448 180.022C187.363 180.022 186.268 179.982 185.172 178.431C186.036 176.92 187.89 175.468 191.618 178.212C197.643 182.627 202.782 191.079 216.875 191.079C221.446 191.079 224.901 196.707 227.534 204.741C233.01 221.406 235.012 248.431 236.528 257.121C238.761 269.988 243.016 293.195 231.852 296.994L231.852 296.994Z" fill="#21935F"/>
<path d="M187.322 214.843C175.694 215.042 165.372 203.031 157.346 192.531C152.817 186.625 149.046 181.195 146.161 178.69C149.763 177.318 148.499 161.448 147.656 153.693C148.435 154.15 149.257 154.607 150.1 155.045C150.542 155.303 150.985 155.522 151.427 155.761C159.558 159.957 169.69 163.516 179.59 163.894C180.307 163.974 181.444 163.755 182.898 163.298C182.856 164.332 182.813 165.306 182.813 166.201C182.792 173.44 184.014 176.88 185.173 178.431C186.268 179.982 187.363 180.022 187.448 180.022L196.274 191.039C197.475 192.531 198.507 194.062 199.37 195.573L199.392 195.593C199.918 196.548 200.382 197.502 200.782 198.437C204.363 207.008 201.477 214.604 187.322 214.843V214.843Z" fill="#FFE1CC"/>
<path d="M173.461 327.48C173.461 327.48 175.125 330.324 174.135 335.196C173.124 340.088 159.6 341.659 157.599 343.23C153.26 357.111 139.336 355.997 139.336 355.997C139.336 355.997 121.389 363.793 103.02 370.972C103.42 358.901 102.241 347.008 100.471 342.236C114.395 339.352 133.564 334.719 133.564 334.719C133.564 334.719 143.907 306.52 147.256 303.378C150.584 300.216 159.263 296.596 164.614 295.96C169.964 295.324 174.956 306.838 174.788 310.457C176.62 314.872 174.619 318.492 173.461 320.858C176.62 323.225 173.461 327.48 173.461 327.48L173.461 327.48Z" fill="#FF9C4A"/>
<path d="M229.219 243.44C228.566 241.889 227.85 240.278 227.071 238.647C227.85 240.278 228.587 241.889 229.219 243.44Z" fill="#21935F"/>
<path d="M231.073 438.685C232.337 451.074 233.58 462.051 234.718 470.066C211.251 488.52 177.758 491.145 148.668 488.659C115.301 485.836 87.727 476.31 87.727 476.31C87.727 476.31 89.033 470.384 90.7814 461.793C94.7416 442.404 100.956 409.392 99.6287 399.867C97.7118 386.086 101.546 391.534 102.704 376.679C102.851 374.79 102.957 372.881 103.02 370.972C103.357 370.833 103.715 370.693 104.052 370.574C122.063 363.495 139.336 355.997 139.336 355.997C139.336 355.997 153.259 357.111 157.599 343.231C159.6 341.659 173.124 340.088 174.135 335.196C175.125 330.324 173.461 327.48 173.461 327.48C173.461 327.48 176.621 323.225 173.461 320.858C174.619 318.492 176.621 314.872 174.788 310.457C174.957 306.838 169.964 295.324 164.614 295.96C159.263 296.597 150.585 300.216 147.256 303.378C143.907 306.52 133.564 334.719 133.564 334.719C133.564 334.719 117.934 338.497 104.663 341.361C103.547 341.579 102.451 341.818 101.398 342.037C101.082 342.116 100.787 342.176 100.471 342.236C100.324 341.818 100.176 341.46 100.007 341.162C97.5637 338.914 94.0671 336.707 90.0439 334.579C72.6864 325.491 45.1335 318.332 45.1335 318.332C45.1335 318.332 31.6941 317.974 36.3073 311.451C40.8993 304.929 42.4793 298.525 43.2165 291.883C43.7854 286.593 48.0825 286.733 49.7888 287.011C50.2311 287.09 50.5051 287.17 50.5051 287.17C50.5051 287.17 76.4571 228.107 88.4848 203.329C89.8753 200.465 91.0969 198.059 92.0448 196.25C100.871 183.562 139.925 183.542 139.925 183.542C146.561 183.9 152.143 187.718 157.346 192.531C165.372 203.031 175.693 215.042 187.321 214.843C201.477 214.605 204.363 207.008 200.782 198.437C200.381 197.503 199.918 196.548 199.391 195.594C201.982 198.537 207.164 205.636 217.486 222.42C220.035 226.119 222.247 229.659 224.142 233.04C239.688 260.841 234.401 278.52 232.737 290.929C232.4 293.454 231.852 295.483 231.22 297.133C230.588 298.724 229.872 299.957 229.093 300.952C227.492 303.08 225.743 304.074 224.606 304.949C223.784 305.566 223.279 306.142 223.363 307.017C226.818 315.33 223.363 311.392 222.331 319.824C222.205 320.838 222.226 323.245 222.331 326.745C222.668 335.972 223.742 352.875 225.217 372.265C226.86 393.682 228.987 418.143 231.073 438.685L231.073 438.685Z" fill="#FF9C4A"/>
<path d="M233.474 256.804C233.917 258.832 234.254 260.801 234.464 262.69C234.232 260.801 233.917 258.852 233.474 256.804Z" fill="#21935F"/>
<path d="M234.127 281.741C234.359 280.051 234.549 278.301 234.717 276.451C234.57 278.301 234.38 280.071 234.127 281.741Z" fill="#21935F"/>
<path d="M275.667 308.111C272.992 309.92 268.863 312.048 263.028 314.614C252.053 319.426 243.417 328.256 237.582 332.909C236.718 333.585 235.939 334.182 235.201 334.659C233.453 335.793 232.041 336.29 231.009 335.753C226.607 333.486 233.305 327.52 227.808 323.682C223.342 320.54 226.965 317.756 228.439 316.821C228.777 316.622 229.008 316.503 229.008 316.503L224.606 304.949C226.27 303.656 229.24 302.145 231.22 297.134C231.431 297.114 231.642 297.074 231.852 296.994C243.017 293.196 238.761 269.989 236.528 257.122C236.002 254.06 235.391 248.671 234.611 242.267C234.611 242.267 234.611 242.247 234.591 242.227C233.158 230.574 231.073 215.5 227.534 204.742C230.841 207.406 235.918 212.298 237.982 218.622C241.142 228.387 254.665 269.631 262.207 276.014C268.547 281.364 267.304 285.361 266.778 286.495C266.672 286.674 266.609 286.773 266.588 286.813C266.988 286.495 271.37 283.213 273.539 285.818C275.814 288.543 273.413 297.611 277.816 300.634C280.638 302.583 280.491 304.83 275.667 308.111V308.111Z" fill="#FF9C4A"/>
<path opacity="0.6" d="M213.4 311.313C211.588 312.247 207.101 316.384 198.317 334.122C186.1 358.742 156.124 350.369 143.359 386.006C132.216 417.108 145.191 474.6 148.667 488.659C115.301 485.836 87.7266 476.31 87.7266 476.31C87.7266 476.31 101.545 413.628 99.6283 399.867C97.7113 386.086 101.545 391.534 102.704 376.679C103.862 361.804 102.325 345.497 100.007 341.162C103.841 331.954 108.349 338.438 108.349 332.134C108.349 325.83 111.656 325.134 113.426 315.568C115.195 305.983 125.727 257.54 125.727 257.54C125.727 257.54 128.655 251.693 125.601 237.176C140.578 248.193 142.958 282.616 142.958 282.616C142.958 282.616 150.457 295.225 167.225 306.878C182.181 317.259 208.028 312.446 213.399 311.313H213.4Z" fill="#FF7748"/>
<path opacity="0.6" d="M238.888 299.4C235.202 314.216 234.78 326.446 235.202 334.659C233.453 335.793 232.042 336.29 231.01 335.753C226.607 333.486 233.306 327.52 227.808 323.682C222.331 319.824 229.009 316.503 229.009 316.503L224.606 304.949C226.27 303.656 229.241 302.145 231.221 297.133C231.431 297.114 231.642 297.074 231.852 296.994C243.017 293.196 238.762 269.988 236.529 257.122C236.002 254.06 235.392 248.67 234.612 242.267C238.741 258.753 243.038 282.676 238.888 299.401L238.888 299.4Z" fill="#FF7748"/>
<path d="M275.667 308.11C272.992 309.92 268.863 312.048 263.028 314.613C252.054 319.426 243.417 328.256 237.582 332.909C236.718 333.585 235.939 334.182 235.202 334.659C233.453 335.793 232.042 336.29 231.01 335.753C226.607 333.486 233.306 327.52 227.808 323.682C223.342 320.54 226.965 317.756 228.44 316.821C230.841 316.344 236.487 313.858 248.599 302.96C257.53 294.926 263.281 289.696 266.778 286.494C266.673 286.673 266.609 286.773 266.588 286.812C266.989 286.494 271.37 283.213 273.54 285.818C275.815 288.543 273.413 297.611 277.816 300.634C280.639 302.582 280.491 304.83 275.667 308.111V308.11Z" fill="#D86545"/>
<path d="M173.461 327.48C173.461 327.48 175.125 330.324 174.135 335.196C173.419 338.696 166.32 340.486 161.58 341.798C159.684 342.315 158.168 342.773 157.599 343.23C154.839 352.04 148.225 354.804 143.759 355.659C141.189 356.136 139.335 355.997 139.335 355.997C139.335 355.997 121.388 363.793 103.02 370.971C91.097 375.605 78.9846 380 71.4856 381.809C52.4431 386.423 34.8749 384.116 34.8749 369.818C34.8749 355.52 45.1333 318.332 45.1333 318.332C45.1333 318.332 72.686 325.491 90.0438 334.579C89.2854 336.528 87.7266 340.684 86.9894 344.503C88.864 344.503 94.1302 343.548 100.471 342.236C114.395 339.352 133.564 334.719 133.564 334.719C133.564 334.719 143.907 306.52 147.256 303.378C148.014 302.662 149.046 301.906 150.268 301.19C153.681 299.122 158.525 297.213 162.423 296.358C163.202 296.179 163.939 296.039 164.613 295.96C169.964 295.323 174.956 306.838 174.788 310.457C176.62 314.872 174.619 318.491 173.46 320.858C176.62 323.224 173.46 327.48 173.46 327.48H173.461Z" fill="#FFE1CC"/>
<path d="M340.884 208.142C341.032 210.17 340.252 211.96 339.073 213.551L340.758 207.028C340.821 207.366 340.863 207.744 340.884 208.142H340.884Z" fill="#FFE1CC"/>
<path d="M108.918 330.244C109.318 336.906 108.118 335.554 103.462 337.284C100.387 338.437 102.177 340.565 101.398 342.037C101.082 342.117 100.787 342.176 100.471 342.236C100.324 341.818 100.176 341.46 100.007 341.162C97.5637 338.914 94.0671 336.707 90.0439 334.579C72.6864 325.491 45.1335 318.332 45.1335 318.332C45.1335 318.332 31.6941 317.974 36.3073 311.451C40.8993 304.929 42.4793 298.525 43.2165 291.883C43.7854 286.593 48.0825 286.733 49.7888 287.011C63.7549 291.585 96.321 303.497 113.152 319.963C114.353 323.205 108.518 323.582 108.918 330.244H108.918Z" fill="#D86545"/>
<path d="M163.244 286.613C162.359 286.932 161.538 287.21 160.758 287.469C156.693 288.801 153.828 289.239 151.574 288.92C147.972 288.483 145.886 286.156 142.959 282.616C140.283 278.719 149.278 241.511 139.314 213.71C129.329 185.929 111.719 185.591 105.442 188.514C105.442 188.514 104.6 177.775 112.92 179.347C121.241 180.918 128.171 179.605 134.28 175.151C140.367 170.716 156.461 182.23 169.205 209.455C181.97 236.659 175.925 281.98 163.244 286.614L163.244 286.613Z" fill="#21935F"/>
<path d="M162.423 296.358C158.526 297.213 153.681 299.122 150.268 301.19C149.952 296.974 150.984 291.585 151.574 288.92C153.828 289.238 156.693 288.801 160.759 287.468C161.201 289.497 161.833 292.619 162.423 296.358V296.358Z" fill="#127043"/>
<path d="M161.58 341.798C160.211 374.79 160.716 437.731 160.211 439.381C159.6 441.429 139.525 441.429 141.063 436.458C142.601 431.506 152.796 372.861 150.943 369.083C149.089 365.284 114.184 407.881 110.161 411.381C109.782 411.719 109.403 411.938 109.023 412.037C105.4 413.091 102.114 404.778 101.819 400.284C101.756 399.409 102.135 398.375 102.894 397.142C106.39 391.494 118.271 381.889 135.818 365.582C139.02 362.599 141.632 359.239 143.76 355.659C148.225 354.804 154.84 352.04 157.599 343.23C158.168 342.773 159.685 342.315 161.581 341.798H161.58Z" fill="#127043"/>
<path d="M239.478 433.872C239.309 436.477 234.464 437.969 231.073 438.685C228.988 418.142 226.86 393.682 225.217 372.264C224.522 353.511 223.89 337.384 223.785 334.5C223.721 332.75 223.09 329.986 222.331 326.745C222.226 323.245 222.205 320.838 222.331 319.824C223.363 311.392 226.818 315.33 223.363 307.017C223.279 306.142 223.785 305.565 224.606 304.949C225.744 304.074 227.492 303.079 229.093 300.952C229.746 309.761 232.274 341.759 235.202 354.685C238.635 369.778 239.773 429.836 239.478 433.873L239.478 433.872Z" fill="#127043"/>
<path d="M82.9449 435.563C85.831 434.907 91.4341 433.316 96.7215 430.034C94.889 441.091 92.5927 452.884 90.7811 461.793C83.7666 463.702 74.8562 465.273 68.0312 463.662C63.692 462.648 56.8878 461.177 49.3468 458.85C55.1816 455.668 71.5703 446.679 76.8153 443.418C80.7967 440.952 82.3555 437.691 82.9452 435.563H82.9449Z" fill="#0B5631"/>
<path d="M109.023 412.037C108.055 420.747 102.556 426.415 96.7217 430.034C91.4343 433.316 85.8311 434.907 82.9451 435.563C81.7023 435.841 80.9648 435.96 80.9648 435.96C73.3393 424.983 80.0802 401.636 81.8286 396.168C82.0602 395.412 82.2076 394.995 82.2076 394.995C89.7489 393.145 95.1414 393.324 99.1228 394.935C100.555 395.492 101.798 396.247 102.893 397.142C102.135 398.375 101.756 399.409 101.819 400.284C102.114 404.779 105.4 413.091 109.023 412.037H109.023Z" fill="#FFC648"/>
<path d="M88.4848 203.329C87.1999 205.974 85.7465 209.017 84.1876 212.338C81.9549 217.091 79.5112 222.42 76.9624 227.988L75.0666 224.667C75.0666 224.667 52.3376 206.77 45.2177 230.971C38.0766 255.153 29.3137 259.091 29.3137 259.091C28.829 259.19 21.9621 260.781 22.6781 256.525C23.4365 252.11 36.7075 247.238 36.4757 229.579C36.3282 219.238 40.2463 214.465 46.8186 211.88C51.4738 210.051 57.4564 209.315 64.2814 208.44C71.4225 207.525 80.4803 205.417 88.4848 203.329V203.329Z" fill="#FFC648"/>
<path d="M54.1024 177.682C54.1024 177.682 53.2307 189.479 59.496 190.958C61.8075 191.503 67.2011 182.592 64.8896 171.681C62.5781 160.77 53.332 158.588 47.9384 166.953C42.5448 175.318 45.8196 185.32 45.8196 185.32C45.8196 185.32 45.1417 163.908 57.8648 168.113C63.6202 170.014 62.8218 186.771 54.1027 177.682H54.1024Z" fill="#BC553C"/>
<path d="M369.595 191.755C368.31 193.485 369.511 197.622 372.629 200.306C373.303 200.903 374.061 201.42 374.925 201.838C379.706 204.145 378.042 205.835 374.25 205.616C373.218 205.556 372.144 205.258 371.091 204.96C368.331 204.184 365.825 203.548 365.024 208.042C364.434 211.264 366.161 212.696 368.268 213.551C370.185 214.346 372.418 214.645 373.492 215.38C371.786 216.275 370.185 216.375 367.425 216.136C366.52 216.057 365.466 215.937 364.245 215.818C359.357 215.281 357.799 220.014 359.463 221.804C361.127 223.574 361.801 223.892 359.694 226.199C358.536 227.452 360.369 228.923 362.749 230.395C364.75 231.667 367.151 232.92 368.478 234.074C368.71 234.273 368.668 234.372 368.394 234.372L365.782 242.864L331.088 243.918L329.276 239.006L333.131 221.406L333.911 218.662C335.533 217.23 337.618 215.54 339.071 213.551C340.251 211.96 341.03 210.17 340.883 208.142C340.862 207.744 340.82 207.367 340.757 207.028C340.42 204.662 339.577 203.727 337.997 204.066L347.287 170.815C362.095 164.69 386.404 166.977 386.404 166.977L388.511 174.813L382.802 194.063C380.401 193.009 377.747 192.173 375.451 191.676C372.544 191.04 370.185 190.96 369.595 191.756L369.595 191.755Z" fill="#606060"/>
<path d="M387.395 208.977C391.608 215.281 388.385 219.179 384.046 220.63C386.174 224.429 380.486 227.989 380.486 227.989C380.486 227.989 382.213 229.977 374.756 237.514C369.111 248.392 348.952 258.872 348.952 258.872C348.952 258.872 326.349 316.642 317.291 332.213C308.255 347.784 279.522 374.909 267.81 370.137C257.994 366.139 242.364 340.924 237.582 332.909C243.417 328.256 252.054 319.426 263.029 314.614C268.863 312.048 272.992 309.92 275.668 308.111L279.543 309.463C279.543 309.463 309.75 267.582 311.415 263.585C313.079 259.608 315.522 257.082 317.523 250.997C319.524 244.892 313.626 240.377 312.741 236.917C311.857 233.457 309.961 215.499 313.078 215.499C316.196 215.499 324.98 212.974 331.552 207.923C334.438 205.695 336.524 204.363 337.977 204.065H337.998C339.578 203.727 340.421 204.661 340.758 207.028L339.073 213.55C337.619 215.539 335.534 217.229 333.912 218.661C333.133 219.337 332.458 219.953 331.995 220.53C332.016 220.709 332.416 221.008 333.132 221.406L329.278 239.005L331.089 243.917L365.783 242.863L368.395 234.371C368.669 234.371 368.711 234.272 368.479 234.073C367.152 232.92 364.751 231.667 362.75 230.394C360.369 228.922 358.537 227.451 359.695 226.198C361.802 223.891 361.128 223.573 359.464 221.803C357.8 220.013 359.358 215.281 364.246 215.817C365.467 215.936 366.521 216.056 367.427 216.135C370.186 216.374 371.787 216.275 373.493 215.38C372.419 214.644 370.186 214.346 368.269 213.55C366.163 212.695 364.435 211.263 365.025 208.042C365.826 203.547 368.332 204.184 371.092 204.959C372.145 205.258 373.219 205.556 374.252 205.615C378.043 205.834 379.707 204.144 374.926 201.837C374.062 201.419 373.304 200.902 372.63 200.306C369.512 197.621 368.311 193.485 369.596 191.755C370.186 190.959 372.545 191.039 375.452 191.675C377.748 192.172 380.402 193.008 382.804 194.062C385.479 195.215 387.859 196.607 389.165 198.059C393.168 202.474 389.397 207.624 387.396 208.976L387.395 208.977Z" fill="#FFE1CC"/>
<path d="M369.596 191.755C368.311 193.485 369.511 197.622 372.629 200.306L371.091 204.96C368.332 204.184 365.825 203.548 365.025 208.042C364.435 211.264 366.162 212.696 368.269 213.551L367.426 216.136C366.52 216.057 365.467 215.937 364.245 215.818C359.358 215.281 357.799 220.014 359.463 221.804C361.128 223.574 361.801 223.892 359.695 226.199C358.536 227.452 360.369 228.923 362.749 230.395L361.022 235.645L333.027 237.037L339.072 213.551L340.757 207.028L349.605 172.704C359.189 168.011 382.761 169.403 382.761 169.403L375.451 191.676C372.544 191.039 370.185 190.96 369.595 191.755H369.596Z" fill="#EDEDED"/>
<path d="M73.6764 163.616C73.1499 162.642 63.1439 144.724 42.353 159.937C34.1799 165.903 32.6843 186.107 32.6843 186.107C32.6843 186.107 30.1776 185.889 27.6709 184.477C28.9348 177.457 34.2643 154.587 50.5053 150.232C69.253 145.201 73.4659 162.661 73.6767 163.616H73.6764Z" fill="#BC553C"/>
<path d="M57.6298 202.966C59.5407 203.223 61.4892 202.973 63.3025 202.349C68.5464 200.542 79.4473 194.863 78.3425 179.067C78.3425 179.067 70.0606 204.087 53.7034 201.351C53.7034 201.351 54.5144 202.548 57.6298 202.966V202.966Z" fill="#BC553C"/>
<path d="M219.846 126.09C219.782 127.204 219.761 128.278 219.761 129.292C219.761 138.38 208.66 148.562 198.001 155.502C193.24 158.604 188.543 161.09 184.983 162.522C184.224 162.84 183.529 163.099 182.898 163.298C181.444 163.755 180.307 163.974 179.59 163.894C169.69 163.516 159.558 159.957 151.427 155.761C150.984 155.522 150.542 155.303 150.1 155.045C149.257 154.607 148.435 154.15 147.656 153.693C142.474 150.65 138.366 147.488 136.134 145.042C135.249 144.087 134.638 143.252 134.364 142.556C134.006 141.661 134.006 140.866 134.238 140.17C135.334 136.729 141.864 135.437 135.46 131.996C127.793 127.84 133.501 124.32 133.501 124.32C141.611 115.849 134.807 111.672 131.289 106.701C128.129 102.206 133.733 78.9196 134.849 74.4847C141 71.1834 147.109 67.8426 152.986 64.5018C165.519 72.178 215.738 73.1723 220.857 78.5217C225.87 83.7717 220.541 109.724 219.846 126.09L219.846 126.09Z" fill="#FFE1CC"/>
<path d="M182.898 163.298C182.856 164.332 182.814 165.307 182.814 166.201C180.665 168.727 176.747 170.994 169.837 170.358C160.59 169.503 153.786 161.051 150.1 155.045C150.542 155.304 150.985 155.523 151.427 155.761C159.558 159.957 169.69 163.517 179.591 163.895C180.307 163.974 181.444 163.756 182.898 163.298V163.298Z" fill="#E8CBB8"/>
<path d="M329.501 232.758C329.442 232.758 329.393 232.712 329.393 232.656C329.393 226.224 324.629 225.215 324.581 225.205L324.328 225.155L330.674 221.223C336.7 217.551 340.159 213.709 340.678 210.112C341.094 207.23 339.481 205.478 339.465 205.461C339.425 205.419 339.429 205.355 339.474 205.318C339.518 205.281 339.586 205.285 339.625 205.326C339.642 205.344 341.318 207.158 340.892 210.133C340.359 213.844 336.961 217.633 330.791 221.393L324.858 225.069C325.844 225.368 329.608 226.889 329.608 232.656C329.608 232.712 329.56 232.758 329.501 232.758H329.501Z" fill="#383838"/>
<path d="M156.869 89.273C160.66 84.6528 167.191 82.2244 173.299 83.2384C175.328 83.5309 177.289 84.1636 179.155 84.9573C177.267 84.2338 175.298 83.6546 173.275 83.3927C167.179 82.4754 160.827 84.8265 156.869 89.273Z" fill="#383838"/>
<path d="M205.886 88.5809C208.527 86.5698 212.99 84.7206 215.809 87.4019C216.181 87.7484 216.468 88.163 216.731 88.5809C214.07 84.6728 209.175 86.4498 205.886 88.5809H205.886Z" fill="#383838"/>
<path d="M171.351 105.214C171.79 102.009 170.645 99.2281 168.793 99.0021C166.941 98.7761 165.085 101.191 164.646 104.395C164.207 107.6 165.352 110.381 167.204 110.607C169.055 110.833 170.912 108.418 171.351 105.214Z" fill="#383838"/>
<path d="M209.894 107.718C210.288 104.846 209.261 102.354 207.602 102.151C205.943 101.949 204.279 104.113 203.885 106.985C203.492 109.857 204.518 112.349 206.178 112.552C207.837 112.754 209.501 110.59 209.894 107.718Z" fill="#383838"/>
<path d="M160.8 136.78C166.035 142.72 173.348 147.443 181.58 148.489C185.589 148.973 189.687 148.547 193.538 147.393C190.749 148.344 187.504 148.825 184.45 148.819C178.237 148.784 172.193 146.521 167.288 142.984C164.89 141.206 162.476 139.1 160.8 136.78V136.78Z" fill="#383838"/>
<path d="M116.967 119.163C116.355 114.633 118.645 114.704 121.553 117.52L121.607 117.57L121.572 117.636C119.622 121.482 119.768 126.021 120.864 130.08C119.886 127.019 119.592 123.728 120.294 120.583C120.529 119.537 120.858 118.501 121.388 117.543L121.407 117.659C118.566 114.916 116.604 114.76 116.968 119.163L116.967 119.163Z" fill="#383838"/>
<path d="M169.703 149.343C172.198 151.428 175.377 152.823 178.739 152.877C178.757 152.876 178.759 152.905 178.739 152.904C175.519 152.957 171.634 151.811 169.703 149.343Z" fill="#383838"/>
<path d="M380.48 228.115L380.418 228.067C380.355 228.018 373.97 223.213 362.055 223.213C361.996 223.213 361.948 223.168 361.948 223.112C361.948 223.056 361.996 223.011 362.055 223.011C368.322 223.011 373.015 224.341 375.848 225.457C378.578 226.532 380.158 227.622 380.488 227.862C381.005 227.5 384.497 224.885 383.94 220.643C383.343 216.107 373.585 215.487 373.486 215.481C373.427 215.478 373.382 215.43 373.385 215.374C373.389 215.318 373.443 215.273 373.499 215.279C373.524 215.281 376.026 215.432 378.57 216.156C381.965 217.121 383.896 218.664 384.152 220.618C384.767 225.298 380.588 228.045 380.546 228.072L380.48 228.115L380.48 228.115Z" fill="#383838"/>
<path d="M374.04 236.805C372.138 236.805 370.553 235.598 370.528 235.579C370.483 235.544 370.476 235.48 370.514 235.437C370.551 235.394 370.619 235.388 370.665 235.423C370.674 235.43 371.606 236.146 372.868 236.461C374.544 236.879 375.983 236.429 377.144 235.123C379.961 231.953 380.375 228.019 380.379 227.979C380.384 227.924 380.433 227.883 380.495 227.888C380.554 227.893 380.598 227.942 380.592 227.998C380.588 228.038 380.17 232.033 377.308 235.253C376.265 236.427 375.103 236.805 374.039 236.805H374.04Z" fill="#383838"/>
<path d="M384.046 220.732C383.998 220.732 383.955 220.702 383.942 220.657C383.927 220.603 383.961 220.547 384.018 220.533C384.056 220.523 387.769 219.557 388.987 216.621C389.849 214.543 389.283 211.989 387.304 209.031C385.936 206.986 377.626 204.703 377.542 204.68C377.485 204.665 377.452 204.609 377.469 204.555C377.485 204.501 377.546 204.471 377.602 204.486C377.947 204.58 386.074 206.813 387.486 208.923C389.503 211.94 390.076 214.555 389.186 216.696C387.927 219.728 384.111 220.719 384.073 220.728C384.064 220.731 384.054 220.732 384.045 220.732L384.046 220.732Z" fill="#383838"/>
<path d="M387.395 209.078C387.347 209.078 387.303 209.047 387.291 209.001C387.277 208.946 387.313 208.892 387.37 208.879C387.399 208.872 390.244 208.144 390.773 201.585C391.302 195.018 375.669 191.772 375.511 191.74C375.453 191.729 375.416 191.675 375.429 191.62C375.441 191.565 375.494 191.53 375.556 191.542C375.596 191.55 379.584 192.368 383.454 194C388.607 196.173 391.212 198.801 390.986 201.6C390.444 208.329 387.543 209.049 387.42 209.076C387.411 209.078 387.403 209.079 387.395 209.079L387.395 209.078Z" fill="#383838"/>
<path d="M173.461 327.582H173.457L157.982 327.107C157.923 327.105 157.876 327.058 157.878 327.002C157.88 326.946 157.92 326.907 157.989 326.904L173.464 327.379C173.523 327.381 173.57 327.428 173.568 327.484C173.566 327.538 173.518 327.582 173.461 327.582Z" fill="#383838"/>
<path d="M173.461 320.959C173.453 320.959 173.444 320.959 173.436 320.957L158.852 317.682C158.795 317.669 158.759 317.614 158.772 317.56C158.786 317.506 158.843 317.472 158.902 317.485L173.486 320.759C173.543 320.772 173.579 320.827 173.565 320.882C173.554 320.928 173.51 320.959 173.461 320.959H173.461Z" fill="#383838"/>
<path d="M157.794 342.65C157.778 342.65 157.762 342.647 157.747 342.64C157.694 342.615 157.671 342.555 157.697 342.504C157.723 342.454 160.324 337.443 164.252 336.968C164.312 336.961 164.365 337 164.372 337.055C164.38 337.111 164.338 337.162 164.279 337.169C160.467 337.63 157.916 342.543 157.891 342.592C157.872 342.629 157.834 342.65 157.794 342.65H157.794Z" fill="#383838"/>
<path d="M166.72 311.033C166.708 311.033 166.695 311.031 166.683 311.027C163.363 309.887 160.097 310.113 160.064 310.116C160.008 310.123 159.954 310.079 159.949 310.023C159.944 309.967 159.988 309.918 160.048 309.914C160.081 309.912 163.392 309.682 166.756 310.836C166.812 310.855 166.841 310.913 166.821 310.966C166.805 311.007 166.764 311.033 166.72 311.033V311.033Z" fill="#383838"/>
</svg>
