<svg width="1441" height="199" viewBox="0 0 1441 199" fill="none" xmlns="http://www.w3.org/2000/svg">
<path fill-rule="evenodd" clip-rule="evenodd" d="M1440 58.3171C1440 58.3171 1292.42 0 1171.5 0C1011.55 0 935.385 52 806 52C655.207 52 613.559 28.5 529 28.5C409.489 28.5 231.131 79.4489 147.945 71.4964C80.8153 65.0788 0 52.1166 0 52.1166V160.958L1440 167.5V58.3171Z" fill="#FFC9A8"/>
<path fill-rule="evenodd" clip-rule="evenodd" d="M0.395508 130.529C0.395508 130.529 50.5385 44.1103 217.5 33.5C363.478 27.1901 433.246 94.7262 563.778 94.7262C715.908 94.7262 816.297 8.5 964 8.5C1071.73 8.5 1148.23 91.0144 1294.93 82.4488C1464.31 65.801 1439.06 72.7699 1439.06 72.7699V167.845L0.395508 174.5V130.529Z" fill="#FFA270"/>
<path fill-rule="evenodd" clip-rule="evenodd" d="M0.284668 135.224C0.284668 135.224 86.9975 107.745 155.049 104.978C223.101 102.212 255.5 140.89 255.5 140.89C255.5 140.89 311.694 123.828 329 125C346.306 126.172 394 140.89 394 140.89C394 140.89 405.475 104.978 497 104.978C588.525 104.978 592.532 140.89 592.532 140.89C592.532 140.89 622.996 135.224 654.723 135.224C686.45 135.224 722.362 140.89 722.362 140.89C722.362 140.89 760.938 91.5 855.5 91.5C950.062 91.5 974.235 137.589 974.235 137.589C974.235 137.589 1036.88 113.153 1074 113.153C1111.12 113.153 1186.5 140.89 1186.5 140.89C1186.5 140.89 1222.7 115.561 1278 104.978C1333.3 94.396 1374.43 104.978 1374.43 104.978L1440.28 113.153V198.5H0.284668V135.224Z" fill="url(#paint0_linear_305_1031)"/>
<defs>
<linearGradient id="paint0_linear_305_1031" x1="0.284668" y1="102.5" x2="0.284668" y2="198.5" gradientUnits="userSpaceOnUse">
<stop stop-color="#E83800"/>
<stop offset="1" stop-color="#FF906D"/>
</linearGradient>
</defs>
</svg>
