<svg width="177" height="197" viewBox="0 0 177 197" fill="none" xmlns="http://www.w3.org/2000/svg">
<path d="M66.6541 79.5643C94.696 79.5239 116.722 86.4063 133.205 105.441C148.242 122.806 156.715 148.375 164.593 179.503L130.063 188.242C122.084 156.711 115.145 138.995 106.28 128.757C100.965 122.619 94.1353 118.293 82.6809 116.344C80.566 129.643 76.6543 141.395 70.2585 152.68C61.3878 168.332 48.3796 181.894 31.9027 197L7.83411 170.746C23.7984 156.11 33.2966 145.661 39.2717 135.119C44.9659 125.072 48.0842 113.795 48.8906 96.5417L49.6831 79.5892L66.6541 79.5643Z" fill="#FF5721"/>
<path d="M0 108.124C40.3218 108.18 67.5201 89.61 90.8563 76.169C114.098 62.7823 136.281 52.1774 172.269 56.8254L176.831 21.5011C129.442 15.3807 98.958 30.3995 73.0793 45.3048C47.2951 60.1558 28.9188 72.5465 0.0486957 72.5069L0 108.124Z" fill="#FF5721"/>
<path d="M34.8115 44.0381V51.9629C34.8115 55.0237 32.3303 57.5057 29.2695 57.5059C26.2086 57.5059 23.7266 55.0238 23.7266 51.9629V43.5547L29.0273 38.2539L34.8115 44.0381ZM22.7266 35.7871V43.1406L16.7109 49.1572C14.5466 51.3214 11.0374 51.3213 8.87305 49.1572C6.70871 46.9929 6.70881 43.4837 8.87305 41.3193L14.4053 35.7871H22.7266ZM43.6494 35.7871L49.1816 41.3193C51.346 43.4837 51.346 46.9929 49.1816 49.1572C47.0172 51.3213 43.508 51.3215 41.3438 49.1572L35.8115 43.624V35.7871H43.6494ZM34.8115 35.7871V42.624L29.7334 37.5469L31.4951 35.7871H34.8115ZM26.5596 35.7871L28.3203 37.5469L23.7266 42.1406V35.7871H26.5596ZM30.0811 35.7871L29.0273 36.8398L27.9736 35.7871H30.0811ZM51.9873 23.7021C55.0481 23.7021 57.5301 26.1834 57.5303 29.2441C57.5303 32.305 55.0482 34.7871 51.9873 34.7871H44.0635L38.2783 29.002L43.5791 23.7021H51.9873ZM6.06641 23.7021H14.4756L19.7754 29.002L13.9912 34.7871H6.06641C3.00563 34.787 0.524414 32.305 0.524414 29.2441C0.524599 26.1835 3.00574 23.7023 6.06641 23.7021ZM42.6494 34.7871H35.8115V31.4697L37.5713 29.709L42.6494 34.7871ZM34.8115 34.7871H32.4951L34.8115 32.4697V34.7871ZM31.5654 23.7021L34.8115 26.9482V31.0557L31.0811 34.7871H26.9736L23.7266 31.5391V26.4648L26.4893 23.7021H31.5654ZM25.5596 34.7871H23.7266V32.9531L25.5596 34.7871ZM22.7266 31.9531V34.7871H15.4053L20.4824 29.709L22.7266 31.9531ZM22.7266 30.5391L21.1895 29.002L22.7266 27.4648V30.5391ZM36.8643 29.002L35.8115 30.0557V27.9482L36.8643 29.002ZM22.7266 23.7021V26.0508L20.4824 28.2949L15.8896 23.7021H22.7266ZM42.165 23.7021L37.5713 28.2949L35.8115 26.5342V23.7021H42.165ZM34.8115 23.7021V25.5342L32.9795 23.7021H34.8115ZM25.0752 23.7021L23.7266 25.0508V23.7021H25.0752ZM41.3438 8.84766C43.5081 6.68336 47.0172 6.68352 49.1816 8.84766C51.346 11.012 51.346 14.5212 49.1816 16.6855L43.165 22.7021H35.8115V14.3799L41.3438 8.84766ZM34.8115 22.7021H31.9795L29.7334 20.457L34.8115 15.3799V22.7021ZM30.5654 22.7021H27.4893L29.0273 21.1641L30.5654 22.7021ZM28.3203 20.457L26.0752 22.7021H23.7266V15.8633L28.3203 20.457ZM8.87305 8.84766C11.0374 6.68352 14.5466 6.68343 16.7109 8.84766L22.7266 14.8633V22.7021H14.8896L8.87305 16.6855C6.70875 14.5212 6.7087 11.012 8.87305 8.84766ZM29.2695 0.5C32.3302 0.500196 34.8114 2.98133 34.8115 6.04199V13.9658L29.0273 19.75L23.7266 14.4492V6.04199C23.7267 2.98121 26.2087 0.5 29.2695 0.5Z" fill="#FF5721" stroke="#FF5721"/>
</svg>
