<svg width="538" height="197" viewBox="0 0 538 197" fill="none" xmlns="http://www.w3.org/2000/svg">
<path d="M66.6541 79.5643C94.696 79.5239 116.722 86.4063 133.205 105.441C148.242 122.806 156.715 148.375 164.593 179.503L130.063 188.242C122.084 156.711 115.145 138.995 106.28 128.757C100.965 122.619 94.1353 118.293 82.6809 116.344C80.566 129.643 76.6543 141.395 70.2585 152.68C61.3878 168.332 48.3796 181.894 31.9027 197L7.83411 170.746C23.7984 156.11 33.2966 145.661 39.2717 135.119C44.9659 125.072 48.0842 113.795 48.8906 96.5417L49.6831 79.5892L66.6541 79.5643Z" fill="#FF5721"/>
<path d="M0 108.124C40.3218 108.18 67.5201 89.61 90.8563 76.169C114.098 62.7823 136.281 52.1774 172.269 56.8254L176.831 21.5011C129.442 15.3807 98.958 30.3995 73.0793 45.3048C47.2951 60.1558 28.9188 72.5465 0.0486957 72.5069L0 108.124Z" fill="#FF5721"/>
<path d="M34.8115 44.0381V51.9629C34.8115 55.0237 32.3303 57.5057 29.2695 57.5059C26.2086 57.5059 23.7266 55.0238 23.7266 51.9629V43.5547L29.0273 38.2539L34.8115 44.0381ZM22.7266 35.7871V43.1406L16.7109 49.1572C14.5466 51.3214 11.0374 51.3213 8.87305 49.1572C6.70871 46.9929 6.70881 43.4837 8.87305 41.3193L14.4053 35.7871H22.7266ZM43.6494 35.7871L49.1816 41.3193C51.346 43.4837 51.346 46.9929 49.1816 49.1572C47.0172 51.3213 43.508 51.3215 41.3438 49.1572L35.8115 43.624V35.7871H43.6494ZM34.8115 35.7871V42.624L29.7334 37.5469L31.4951 35.7871H34.8115ZM26.5596 35.7871L28.3203 37.5469L23.7266 42.1406V35.7871H26.5596ZM30.0811 35.7871L29.0273 36.8398L27.9736 35.7871H30.0811ZM51.9873 23.7021C55.0481 23.7021 57.5301 26.1834 57.5303 29.2441C57.5303 32.305 55.0482 34.7871 51.9873 34.7871H44.0635L38.2783 29.002L43.5791 23.7021H51.9873ZM6.06641 23.7021H14.4756L19.7754 29.002L13.9912 34.7871H6.06641C3.00563 34.787 0.524414 32.305 0.524414 29.2441C0.524599 26.1835 3.00574 23.7023 6.06641 23.7021ZM42.6494 34.7871H35.8115V31.4697L37.5713 29.709L42.6494 34.7871ZM34.8115 34.7871H32.4951L34.8115 32.4697V34.7871ZM31.5654 23.7021L34.8115 26.9482V31.0557L31.0811 34.7871H26.9736L23.7266 31.5391V26.4648L26.4893 23.7021H31.5654ZM25.5596 34.7871H23.7266V32.9531L25.5596 34.7871ZM22.7266 31.9531V34.7871H15.4053L20.4824 29.709L22.7266 31.9531ZM22.7266 30.5391L21.1895 29.002L22.7266 27.4648V30.5391ZM36.8643 29.002L35.8115 30.0557V27.9482L36.8643 29.002ZM22.7266 23.7021V26.0508L20.4824 28.2949L15.8896 23.7021H22.7266ZM42.165 23.7021L37.5713 28.2949L35.8115 26.5342V23.7021H42.165ZM34.8115 23.7021V25.5342L32.9795 23.7021H34.8115ZM25.0752 23.7021L23.7266 25.0508V23.7021H25.0752ZM41.3438 8.84766C43.5081 6.68336 47.0172 6.68352 49.1816 8.84766C51.346 11.012 51.346 14.5212 49.1816 16.6855L43.165 22.7021H35.8115V14.3799L41.3438 8.84766ZM34.8115 22.7021H31.9795L29.7334 20.457L34.8115 15.3799V22.7021ZM30.5654 22.7021H27.4893L29.0273 21.1641L30.5654 22.7021ZM28.3203 20.457L26.0752 22.7021H23.7266V15.8633L28.3203 20.457ZM8.87305 8.84766C11.0374 6.68352 14.5466 6.68343 16.7109 8.84766L22.7266 14.8633V22.7021H14.8896L8.87305 16.6855C6.70875 14.5212 6.70869 11.012 8.87305 8.84766ZM29.2695 0.5C32.3302 0.500196 34.8114 2.98133 34.8115 6.04199V13.9658L29.0273 19.75L23.7266 14.4492V6.04199C23.7267 2.98121 26.2087 0.5 29.2695 0.5Z" fill="#FF5721" stroke="#FF5721"/>
<path d="M235.897 112.438C230.096 127.282 222.701 139.01 213.714 147.622C204.727 156.234 195.058 160.541 184.706 160.541C179.245 160.541 174.296 159.124 169.86 156.291C165.423 153.458 161.897 149.209 159.28 143.543C156.777 137.877 155.526 131.022 155.526 122.976C155.526 114.138 158.313 105.072 163.887 95.7804C169.575 86.4884 176.913 78.783 185.9 72.6639C194.887 66.5448 204.102 63.4853 213.544 63.4853C217.98 63.372 221.905 64.2218 225.318 66.0349C228.731 67.848 231.347 70.2842 233.167 73.3438C235.101 76.4033 236.068 79.7461 236.068 83.3723C236.068 88.2449 234.191 92.3242 230.437 95.6104C226.683 98.7832 221.279 101.163 214.226 102.749L187.265 108.868C181.35 110.115 177.027 111.588 174.296 113.288C171.566 114.874 170.201 116.97 170.201 119.577C170.201 121.843 171.339 123.599 173.614 124.846C176.003 126.092 179.302 126.716 183.511 126.716C190.564 126.716 197.731 125.526 205.012 123.146C212.292 120.767 219.061 117.197 225.318 112.438H235.897Z" fill="#FF5721"/>
<path d="M280.85 36.2894L254.06 158.671H231.365L258.155 36.2894H280.85Z" fill="#FF5721"/>
<path d="M330.954 63.3153C338.349 63.3153 343.98 65.185 347.848 68.9245C351.716 72.5506 353.991 77.3665 354.673 83.3723C355.47 89.378 355.071 96.007 353.479 103.259L342.387 158.671H324.641L326.347 142.013C326.802 138.954 326.802 136.517 326.347 134.704C326.006 132.778 325.153 131.815 323.788 131.815C322.309 131.815 320.83 132.608 319.351 134.195C317.986 135.781 316.166 138.217 313.89 141.503C311.274 145.356 308.885 148.586 306.724 151.192C304.562 153.798 301.832 156.065 298.533 157.991C295.348 159.804 291.707 160.71 287.612 160.71C283.403 160.71 279.649 159.691 276.35 157.651C273.164 155.498 270.662 152.778 268.842 149.492C267.021 146.093 266.111 142.693 266.111 139.294C266.111 133.401 268.386 128.699 272.937 125.186C277.601 121.56 284.939 118.897 294.949 117.197L309.283 114.817C317.019 113.684 322.65 112.268 326.176 110.568C329.817 108.755 331.637 106.545 331.637 103.939C331.637 99.5198 327.371 97.3101 318.839 97.3101C312.355 97.3101 306.268 98.2167 300.581 100.03C294.893 101.843 289.546 104.676 284.54 108.528H273.108C277.772 98.6699 283.232 90.3979 289.489 83.7122C295.859 76.9132 302.571 71.814 309.624 68.4145C316.791 65.0151 323.901 63.3153 330.954 63.3153Z" fill="#FF5721"/>
<path d="M435.265 63.6553C442.773 63.6553 447.551 67.6213 449.598 75.5534C451.76 83.4856 451.134 94.7039 447.721 109.208L437.483 158.671H414.788L422.978 121.107C424.457 114.647 424.344 109.832 422.637 106.659C420.931 103.373 417.461 101.729 412.228 101.729C408.019 101.729 403.924 102.636 399.942 104.449C395.961 106.262 392.491 108.982 389.533 112.608C386.689 116.121 384.812 120.427 383.902 125.526L376.223 158.671H353.699L374.176 65.185H390.898L391.581 76.4033C391.695 81.6159 392.093 85.4119 392.775 87.7916C393.572 90.0579 395.05 91.1911 397.212 91.1911C398.805 91.1911 400.454 90.3979 402.16 88.8114C403.981 87.225 406.426 84.6187 409.498 80.9926C414.048 75.5535 418.257 71.3041 422.125 68.2446C426.107 65.185 430.487 63.6553 435.265 63.6553Z" fill="#FF5721"/>
<path d="M513.445 63.3153C520.84 63.3153 526.471 65.185 530.339 68.9245C534.207 72.5506 536.482 77.3665 537.164 83.3723C537.961 89.378 537.563 96.007 535.97 103.259L524.878 158.671H507.132L508.838 142.013C509.293 138.954 509.293 136.517 508.838 134.704C508.497 132.778 507.644 131.815 506.279 131.815C504.8 131.815 503.321 132.608 501.842 134.195C500.477 135.781 498.657 138.217 496.382 141.503C493.765 145.356 491.376 148.586 489.215 151.192C487.053 153.798 484.323 156.065 481.024 157.991C477.839 159.804 474.198 160.71 470.103 160.71C465.894 160.71 462.14 159.691 458.841 157.651C455.656 155.498 453.153 152.778 451.333 149.492C449.512 146.093 448.602 142.693 448.602 139.294C448.602 133.401 450.878 128.699 455.428 125.186C460.092 121.56 467.43 118.897 477.441 117.197L491.774 114.817C499.51 113.684 505.141 112.268 508.668 110.568C512.308 108.755 514.128 106.545 514.128 103.939C514.128 99.5198 509.862 97.3101 501.33 97.3101C494.846 97.3101 488.76 98.2167 483.072 100.03C477.384 101.843 472.037 104.676 467.031 108.528H455.599C460.263 98.6699 465.723 90.3979 471.98 83.7122C478.351 76.9132 485.062 71.814 492.116 68.4145C499.282 65.0151 506.392 63.3153 513.445 63.3153Z" fill="#FF5721"/>
</svg>
