<svg width="390" height="844" viewBox="0 0 390 844" fill="none" xmlns="http://www.w3.org/2000/svg">
<g clip-path="url(#clip0_15_414)">
<rect width="390" height="844" fill="#FFE6D4"/>
<path fill-rule="evenodd" clip-rule="evenodd" d="M390 695.533C390 695.533 338.97 664 300.426 664C249.442 664 215.354 707.006 174.112 707.006C126.047 707.006 119.998 694.579 93.0454 694.579C54.9512 694.579 4.67297 717.881 -21.8426 709.471C-43.2401 702.684 -69 688.976 -69 688.976V804.082L390 811V695.533Z" fill="#FFC9A8"/>
<path fill-rule="evenodd" clip-rule="evenodd" d="M-62 772.169C-62 772.169 -59.6876 699.898 -7.26668 688.598C38.5661 681.877 73.902 734.038 114.885 734.038C162.65 734.038 185.16 703.766 231.534 703.766C265.357 703.766 298.385 730.084 344.444 720.962C446.749 700.699 394.126 697.222 394.126 697.222V812.096L-62 819V772.169Z" fill="#FFA270"/>
<path fill-rule="evenodd" clip-rule="evenodd" d="M-14 776.77C-14 776.77 10.3278 747.573 29.4201 744.633C48.5123 741.694 59.0793 770.155 59.0793 770.155C59.0793 770.155 68.0183 768.91 72.8734 770.155C77.7286 771.4 81.5731 776.77 81.5731 776.77C81.5731 776.77 87.757 759.619 113.435 759.619C139.113 759.619 152.158 782.789 152.158 782.789C152.158 782.789 160.705 776.77 169.606 776.77C178.507 776.77 188.583 782.789 188.583 782.789C188.583 782.789 194.87 759.619 221.4 759.619C247.93 759.619 259.247 779.282 259.247 779.282C259.247 779.282 269.966 773.242 280.382 773.242C290.797 773.242 303.226 779.282 303.226 779.282C303.226 779.282 306.714 760.206 322.229 748.962C337.743 737.718 371.523 744.633 371.523 744.633L390 753.319V844H-14V776.77Z" fill="url(#paint0_linear_15_414)"/>
<path d="M109.973 414.391C121.741 414.374 130.985 417.262 137.902 425.25C144.213 432.538 147.769 443.269 151.075 456.332L136.584 460C133.235 446.767 130.323 439.332 126.603 435.036C124.372 432.46 121.506 430.644 116.699 429.826C115.811 435.408 114.17 440.339 111.485 445.076C107.763 451.644 102.303 457.336 95.3886 463.675L85.2877 452.657C91.9874 446.515 95.9736 442.13 98.4811 437.705C100.871 433.489 102.179 428.757 102.518 421.516L102.85 414.401L109.973 414.391Z" fill="#FF5721"/>
<path d="M82 426.377C98.9219 426.4 110.336 418.607 120.13 412.966C129.884 407.348 139.193 402.897 154.296 404.848L156.211 390.023C136.323 387.455 123.53 393.758 112.669 400.013C101.848 406.246 94.1364 411.446 82.0204 411.429L82 426.377Z" fill="#FF5721"/>
<path d="M96.3189 399.602V402.808C96.3188 403.932 95.4079 404.843 94.2837 404.843C93.1595 404.843 92.2477 403.932 92.2476 402.808V399.399L94.1822 397.465L96.3189 399.602ZM91.2476 396.309V398.984L88.8082 401.425C88.0132 402.22 86.7243 402.22 85.9292 401.425C85.1342 400.63 85.1343 399.341 85.9292 398.546L88.1665 396.309H91.2476ZM100.198 396.309L102.435 398.546C103.23 399.341 103.23 400.63 102.435 401.425C101.64 402.22 100.351 402.22 99.5562 401.425L97.3189 399.188V396.309H100.198ZM96.3189 396.309V398.188L94.8892 396.758L95.3384 396.309H96.3189ZM93.0259 396.309L93.4742 396.757L92.2476 397.984V396.309H93.0259ZM103.818 391.237C104.942 391.237 105.853 392.149 105.853 393.273C105.853 394.398 104.942 395.309 103.818 395.309H100.612L98.4751 393.171L100.41 391.237H103.818ZM84.5464 391.237H87.9546L89.8882 393.171L87.7525 395.309H84.5464C83.4222 395.309 82.5105 394.398 82.5103 393.273C82.5103 392.149 83.4221 391.237 84.5464 391.237ZM99.1978 395.309H97.3189V394.328L97.7681 393.878L99.1978 395.309ZM95.1275 391.237L96.3189 392.429V393.913L94.9244 395.309H93.44L92.2476 394.116V392.227L93.2369 391.237H95.1275ZM91.2476 394.53V395.309H89.1665L90.5953 393.878L91.2476 394.53ZM91.2476 391.237V391.812L90.5953 392.464L89.3687 391.237H91.2476ZM98.9947 391.237L97.7671 392.464L97.3189 392.015V391.237H98.9947ZM99.5562 384.918C100.351 384.123 101.64 384.123 102.435 384.918C103.23 385.713 103.23 387.002 102.435 387.797L99.9947 390.237H97.3189V387.155L99.5562 384.918ZM96.3189 390.237H95.5415L94.8882 389.585L96.3189 388.155V390.237ZM93.4751 389.585L92.8228 390.237H92.2476V388.357L93.4751 389.585ZM85.9292 384.918C86.7243 384.123 88.0133 384.123 88.8082 384.918L91.2476 387.357V390.237H88.3687L85.9292 387.798C85.1342 387.003 85.1342 385.713 85.9292 384.918ZM94.2837 381.5C95.4079 381.5 96.3189 382.412 96.3189 383.536V386.741L94.1822 388.878L92.2476 386.943V383.536C92.2476 382.412 93.1594 381.5 94.2837 381.5Z" fill="#FF5721" stroke="#FF5721"/>
<path d="M180.999 428.187C178.564 434.417 175.461 439.339 171.69 442.953C167.918 446.567 163.86 448.374 159.516 448.374C157.224 448.374 155.147 447.78 153.285 446.591C151.423 445.402 149.943 443.619 148.845 441.241C147.795 438.863 147.27 435.986 147.27 432.61C147.27 428.9 148.44 425.096 150.779 421.196C153.166 417.297 156.245 414.063 160.017 411.495C163.788 408.927 167.656 407.643 171.618 407.643C173.48 407.595 175.127 407.952 176.559 408.713C177.992 409.474 179.09 410.496 179.854 411.78C180.665 413.064 181.071 414.467 181.071 415.989C181.071 418.034 180.283 419.746 178.708 421.125C177.132 422.456 174.865 423.455 171.905 424.121L160.59 426.689C158.107 427.212 156.293 427.83 155.147 428.544C154.001 429.209 153.429 430.089 153.429 431.183C153.429 432.134 153.906 432.871 154.861 433.394C155.863 433.917 157.248 434.179 159.014 434.179C161.974 434.179 164.982 433.68 168.037 432.681C171.093 431.682 173.934 430.184 176.559 428.187H180.999Z" fill="#FF5721"/>
<path d="M199.865 396.23L188.622 447.59H179.097L190.34 396.23H199.865Z" fill="#FF5721"/>
<path d="M220.892 407.572C223.995 407.572 226.358 408.356 227.982 409.926C229.605 411.447 230.56 413.468 230.846 415.989C231.18 418.509 231.013 421.291 230.345 424.335L225.69 447.59H218.242L218.958 440.599C219.149 439.315 219.149 438.292 218.958 437.532C218.815 436.723 218.457 436.319 217.884 436.319C217.264 436.319 216.643 436.652 216.022 437.318C215.449 437.983 214.686 439.006 213.731 440.385C212.633 442.002 211.63 443.357 210.723 444.451C209.816 445.545 208.67 446.496 207.286 447.304C205.949 448.065 204.421 448.446 202.702 448.446C200.936 448.446 199.36 448.018 197.976 447.162C196.639 446.258 195.589 445.117 194.825 443.738C194.061 442.311 193.679 440.884 193.679 439.458C193.679 436.985 194.634 435.011 196.544 433.537C198.501 432.015 201.58 430.898 205.782 430.184L211.797 429.186C215.044 428.71 217.407 428.116 218.887 427.402C220.415 426.641 221.178 425.714 221.178 424.62C221.178 422.766 219.388 421.838 215.807 421.838C213.086 421.838 210.532 422.219 208.145 422.98C205.758 423.74 203.514 424.929 201.413 426.546H196.615C198.573 422.409 200.864 418.937 203.49 416.132C206.164 413.278 208.98 411.138 211.94 409.712C214.948 408.285 217.932 407.572 220.892 407.572Z" fill="#FF5721"/>
<path d="M264.668 407.714C267.819 407.714 269.824 409.379 270.683 412.708C271.59 416.036 271.328 420.744 269.896 426.832L265.599 447.59H256.074L259.512 431.825C260.132 429.114 260.085 427.093 259.369 425.762C258.652 424.382 257.196 423.693 255 423.693C253.234 423.693 251.515 424.073 249.844 424.834C248.173 425.595 246.717 426.736 245.476 428.258C244.282 429.732 243.494 431.54 243.112 433.68L239.89 447.59H230.437L239.031 408.356H246.049L246.335 413.064C246.383 415.252 246.55 416.845 246.836 417.844C247.171 418.795 247.791 419.27 248.698 419.27C249.367 419.27 250.059 418.937 250.775 418.272C251.539 417.606 252.565 416.512 253.854 414.99C255.764 412.708 257.53 410.924 259.154 409.64C260.825 408.356 262.663 407.714 264.668 407.714Z" fill="#FF5721"/>
<path d="M297.478 407.572C300.581 407.572 302.945 408.356 304.568 409.926C306.191 411.447 307.146 413.468 307.432 415.989C307.766 418.509 307.599 421.291 306.931 424.335L302.276 447.59H294.828L295.545 440.599C295.736 439.315 295.736 438.292 295.545 437.532C295.401 436.723 295.043 436.319 294.47 436.319C293.85 436.319 293.229 436.652 292.608 437.318C292.036 437.983 291.272 439.006 290.317 440.385C289.219 442.002 288.216 443.357 287.309 444.451C286.402 445.545 285.256 446.496 283.872 447.304C282.535 448.065 281.007 448.446 279.289 448.446C277.522 448.446 275.947 448.018 274.562 447.162C273.225 446.258 272.175 445.117 271.411 443.738C270.647 442.311 270.265 440.884 270.265 439.458C270.265 436.985 271.22 435.011 273.13 433.537C275.087 432.015 278.167 430.898 282.368 430.184L288.383 429.186C291.63 428.71 293.993 428.116 295.473 427.402C297.001 426.641 297.765 425.714 297.765 424.62C297.765 422.766 295.974 421.838 292.394 421.838C289.672 421.838 287.118 422.219 284.731 422.98C282.344 423.74 280.1 424.929 278 426.546H273.201C275.159 422.409 277.45 418.937 280.076 416.132C282.75 413.278 285.567 411.138 288.527 409.712C291.534 408.285 294.518 407.572 297.478 407.572Z" fill="#FF5721"/>
</g>
<defs>
<linearGradient id="paint0_linear_15_414" x1="-14" y1="742" x2="-14" y2="844" gradientUnits="userSpaceOnUse">
<stop stop-color="#E83800"/>
<stop offset="1" stop-color="#FF906D"/>
</linearGradient>
<clipPath id="clip0_15_414">
<rect width="390" height="844" fill="white"/>
</clipPath>
</defs>
</svg>
